<?xml version="1.0" encoding="UTF-8"?>
<svg xmlns="http://www.w3.org/2000/svg" xmlns:xlink="http://www.w3.org/1999/xlink" width="32px" height="32px" viewBox="0 0 16 16" version="1.1">
<g id="surface1">
<path style=" stroke:none;fill-rule:nonzero;fill:rgb(28.235295%,81.568629%,97.254902%);fill-opacity:1;" d="M 10.183594 1.570312 C 10.214844 1.59375 10.246094 1.617188 10.277344 1.640625 C 10.605469 1.902344 10.9375 2.191406 11.199219 2.523438 C 11.234375 2.566406 11.234375 2.566406 11.269531 2.609375 C 11.878906 3.378906 12.441406 4.351562 12.5625 5.34375 C 12.578125 5.417969 12.578125 5.417969 12.636719 5.457031 C 12.660156 5.464844 12.683594 5.476562 12.707031 5.488281 C 12.742188 5.503906 12.742188 5.503906 12.78125 5.523438 C 12.808594 5.535156 12.835938 5.546875 12.867188 5.558594 C 13.285156 5.757812 13.648438 6.003906 14 6.308594 C 14.015625 6.320312 14.03125 6.332031 14.046875 6.347656 C 14.269531 6.542969 14.464844 6.746094 14.644531 6.984375 C 14.667969 7.011719 14.691406 7.039062 14.710938 7.066406 C 15.183594 7.667969 15.488281 8.367188 15.660156 9.109375 C 15.667969 9.128906 15.671875 9.148438 15.675781 9.171875 C 15.859375 9.953125 15.785156 10.8125 15.621094 11.589844 C 15.585938 11.769531 15.558594 11.957031 15.53125 12.140625 C 15.527344 12.175781 15.519531 12.207031 15.515625 12.242188 C 15.464844 12.582031 15.441406 12.914062 15.441406 13.257812 C 15.441406 13.320312 15.441406 13.382812 15.441406 13.449219 C 15.4375 13.628906 15.4375 13.8125 15.4375 13.992188 C 15.4375 14.105469 15.433594 14.21875 15.433594 14.328125 C 15.433594 14.371094 15.433594 14.414062 15.433594 14.457031 C 15.433594 14.871094 15.433594 14.871094 15.292969 15.015625 C 15.175781 15.097656 15.097656 15.121094 14.957031 15.121094 C 14.921875 15.121094 14.882812 15.121094 14.847656 15.121094 C 14.808594 15.121094 14.769531 15.121094 14.730469 15.121094 C 14.6875 15.121094 14.644531 15.121094 14.605469 15.121094 C 14.472656 15.121094 14.34375 15.121094 14.210938 15.125 C 13.417969 15.125 12.644531 15.164062 11.867188 15.324219 C 10.402344 15.613281 8.929688 15.457031 7.660156 14.621094 C 7.476562 14.496094 7.304688 14.363281 7.136719 14.214844 C 7.117188 14.195312 7.117188 14.195312 7.09375 14.175781 C 6.789062 13.90625 6.527344 13.625 6.289062 13.292969 C 6.273438 13.269531 6.257812 13.246094 6.242188 13.222656 C 6.226562 13.199219 6.210938 13.179688 6.195312 13.15625 C 6.179688 13.136719 6.167969 13.117188 6.152344 13.097656 C 6.125 13.046875 6.125 13.046875 6.125 12.984375 C 6.09375 12.984375 6.09375 12.984375 6.066406 12.984375 C 5.878906 12.988281 5.703125 12.976562 5.519531 12.949219 C 5.492188 12.945312 5.460938 12.941406 5.433594 12.9375 C 5.148438 12.898438 4.867188 12.84375 4.585938 12.789062 C 4.3125 12.734375 4.039062 12.6875 3.765625 12.652344 C 3.738281 12.648438 3.710938 12.644531 3.6875 12.640625 C 3.3125 12.597656 2.9375 12.582031 2.558594 12.578125 C 2.488281 12.578125 2.414062 12.578125 2.339844 12.578125 C 2.132812 12.574219 1.925781 12.574219 1.71875 12.570312 C 1.589844 12.570312 1.464844 12.570312 1.335938 12.570312 C 1.289062 12.570312 1.238281 12.570312 1.191406 12.570312 C 1.125 12.566406 1.058594 12.566406 0.988281 12.566406 C 0.953125 12.566406 0.914062 12.566406 0.875 12.566406 C 0.71875 12.546875 0.617188 12.5 0.511719 12.382812 C 0.433594 12.269531 0.425781 12.207031 0.425781 12.070312 C 0.425781 12.03125 0.425781 11.996094 0.425781 11.957031 C 0.425781 11.9375 0.425781 11.917969 0.421875 11.898438 C 0.421875 11.832031 0.421875 11.769531 0.421875 11.707031 C 0.417969 11.527344 0.417969 11.34375 0.417969 11.164062 C 0.40625 10.046875 0.308594 8.96875 0.09375 7.871094 C 0.0859375 7.832031 0.078125 7.792969 0.0703125 7.75 C 0.0625 7.71875 0.0546875 7.683594 0.0507812 7.648438 C 0.0117188 7.425781 -0.00390625 7.210938 -0.0078125 6.988281 C -0.0078125 6.960938 -0.0078125 6.9375 -0.0078125 6.910156 C -0.0078125 6.832031 -0.0078125 6.75 -0.0078125 6.667969 C -0.0078125 6.640625 -0.0078125 6.613281 -0.0078125 6.585938 C -0.0078125 6.179688 0.00390625 5.785156 0.09375 5.382812 C 0.0976562 5.359375 0.101562 5.335938 0.109375 5.308594 C 0.355469 4.160156 0.890625 3.109375 1.710938 2.261719 C 1.753906 2.214844 1.800781 2.164062 1.84375 2.117188 C 2.234375 1.710938 2.683594 1.390625 3.167969 1.109375 C 3.1875 1.097656 3.207031 1.085938 3.222656 1.074219 C 5.367188 -0.179688 8.234375 0.078125 10.183594 1.570312 Z M 10.183594 1.570312 "/>
<path style=" stroke:none;fill-rule:nonzero;fill:rgb(50.980395%,89.803922%,70.588237%);fill-opacity:1;" d="M 12.617188 5.476562 C 12.773438 5.488281 12.90625 5.570312 13.042969 5.644531 C 13.082031 5.664062 13.082031 5.664062 13.121094 5.6875 C 13.453125 5.867188 13.75 6.078125 14.023438 6.335938 C 14.085938 6.394531 14.148438 6.445312 14.210938 6.5 C 14.535156 6.785156 14.789062 7.140625 15.015625 7.507812 C 15.035156 7.542969 15.058594 7.574219 15.082031 7.609375 C 15.359375 8.074219 15.539062 8.585938 15.660156 9.109375 C 15.667969 9.128906 15.671875 9.148438 15.675781 9.171875 C 15.859375 9.953125 15.785156 10.8125 15.621094 11.589844 C 15.585938 11.769531 15.558594 11.957031 15.53125 12.140625 C 15.527344 12.175781 15.519531 12.207031 15.515625 12.242188 C 15.464844 12.582031 15.441406 12.914062 15.441406 13.257812 C 15.441406 13.320312 15.441406 13.382812 15.441406 13.449219 C 15.4375 13.628906 15.4375 13.8125 15.4375 13.992188 C 15.4375 14.105469 15.433594 14.21875 15.433594 14.328125 C 15.433594 14.371094 15.433594 14.414062 15.433594 14.457031 C 15.433594 14.871094 15.433594 14.871094 15.292969 15.015625 C 15.175781 15.097656 15.097656 15.121094 14.957031 15.121094 C 14.921875 15.121094 14.882812 15.121094 14.847656 15.121094 C 14.808594 15.121094 14.769531 15.121094 14.730469 15.121094 C 14.6875 15.121094 14.644531 15.121094 14.605469 15.121094 C 14.472656 15.121094 14.34375 15.121094 14.210938 15.125 C 13.417969 15.125 12.644531 15.164062 11.867188 15.324219 C 10.402344 15.613281 8.929688 15.457031 7.660156 14.621094 C 7.476562 14.496094 7.304688 14.363281 7.136719 14.214844 C 7.117188 14.195312 7.117188 14.195312 7.09375 14.175781 C 6.789062 13.90625 6.527344 13.625 6.289062 13.292969 C 6.273438 13.269531 6.257812 13.246094 6.242188 13.222656 C 6.226562 13.199219 6.210938 13.179688 6.195312 13.15625 C 6.179688 13.136719 6.167969 13.117188 6.152344 13.097656 C 6.125 13.046875 6.125 13.046875 6.125 12.984375 C 6.148438 12.984375 6.148438 12.984375 6.175781 12.984375 C 8.003906 12.933594 9.664062 12.316406 10.953125 10.992188 C 11.070312 10.863281 11.183594 10.726562 11.292969 10.585938 C 11.304688 10.566406 11.316406 10.550781 11.332031 10.535156 C 11.921875 9.78125 12.300781 8.917969 12.515625 7.992188 C 12.523438 7.964844 12.527344 7.9375 12.535156 7.914062 C 12.628906 7.496094 12.65625 7.082031 12.652344 6.652344 C 12.652344 6.632812 12.652344 6.609375 12.652344 6.585938 C 12.652344 6.257812 12.636719 5.933594 12.59375 5.609375 C 12.589844 5.558594 12.589844 5.558594 12.585938 5.507812 C 12.59375 5.496094 12.605469 5.488281 12.617188 5.476562 Z M 12.617188 5.476562 "/>
<path style=" stroke:none;fill-rule:nonzero;fill:rgb(99.215686%,99.607843%,99.607843%);fill-opacity:1;" d="M 3.875 6.125 C 4.113281 6.285156 4.273438 6.519531 4.339844 6.800781 C 4.371094 7.070312 4.3125 7.328125 4.164062 7.554688 C 3.976562 7.777344 3.757812 7.921875 3.46875 7.949219 C 3.15625 7.957031 2.917969 7.90625 2.671875 7.699219 C 2.5 7.511719 2.363281 7.292969 2.355469 7.03125 C 2.371094 6.707031 2.460938 6.445312 2.703125 6.222656 C 3.042969 5.953125 3.492188 5.898438 3.875 6.125 Z M 3.875 6.125 "/>
<path style=" stroke:none;fill-rule:nonzero;fill:rgb(99.215686%,99.607843%,99.607843%);fill-opacity:1;" d="M 6.722656 6.175781 C 6.921875 6.339844 7.027344 6.527344 7.109375 6.769531 C 7.136719 7.0625 7.097656 7.320312 6.921875 7.5625 C 6.730469 7.789062 6.535156 7.917969 6.238281 7.949219 C 5.925781 7.957031 5.6875 7.90625 5.441406 7.699219 C 5.238281 7.484375 5.164062 7.257812 5.152344 6.96875 C 5.164062 6.695312 5.230469 6.46875 5.421875 6.265625 C 5.796875 5.9375 6.304688 5.894531 6.722656 6.175781 Z M 6.722656 6.175781 "/>
<path style=" stroke:none;fill-rule:nonzero;fill:rgb(99.607843%,99.607843%,99.607843%);fill-opacity:1;" d="M 9.335938 6.074219 C 9.585938 6.21875 9.761719 6.414062 9.859375 6.6875 C 9.925781 6.984375 9.875 7.246094 9.734375 7.507812 C 9.566406 7.71875 9.382812 7.894531 9.109375 7.9375 C 8.847656 7.960938 8.625 7.957031 8.398438 7.816406 C 8.378906 7.800781 8.355469 7.789062 8.332031 7.773438 C 8.136719 7.640625 8.011719 7.457031 7.9375 7.230469 C 7.914062 6.9375 7.910156 6.65625 8.089844 6.410156 C 8.222656 6.257812 8.339844 6.144531 8.523438 6.0625 C 8.546875 6.050781 8.570312 6.039062 8.59375 6.027344 C 8.832031 5.945312 9.109375 5.96875 9.335938 6.074219 Z M 9.335938 6.074219 "/>
</g>
</svg>
