<svg xmlns="http://www.w3.org/2000/svg" x="0px" y="0px" width="16" height="16" viewBox="0,0,256,256">
<g fill-opacity="0" fill="#dddddd" fill-rule="nonzero" stroke="none" stroke-width="1" stroke-linecap="butt" stroke-linejoin="miter" stroke-miterlimit="10" stroke-dasharray="" stroke-dashoffset="0" font-family="none" font-weight="none" font-size="none" text-anchor="none" style="mix-blend-mode: normal"><path d="M0,256v-256h256v256z" id="bgRectangle"></path></g><g fill="none" fill-rule="nonzero" stroke="none" stroke-width="1" stroke-linecap="butt" stroke-linejoin="miter" stroke-miterlimit="10" stroke-dasharray="" stroke-dashoffset="0" font-family="none" font-weight="none" font-size="none" text-anchor="none" style="mix-blend-mode: normal"><g transform="scale(2.56,2.56)"><path d="M12.725,26.858c-1.105,0 -2,0.895 -2,2c0,1.105 0.895,2 2,2c1.105,0 2,-0.895 2,-2c0,-1.105 -0.895,-2 -2,-2z" fill="#ee3e54"></path><path d="M76.725,11.858c-0.551,0 -1,0.449 -1,1c0,0.551 0.449,1 1,1c0.551,0 1,-0.449 1,-1c0,-0.551 -0.449,-1 -1,-1z" fill="#f1bc19"></path><path d="M49.725,12.858c-20.434,0 -37,16.566 -37,37c0,20.434 16.566,37 37,37c20.434,0 37,-16.566 37,-37c0,-20.434 -16.566,-37 -37,-37z" fill="#fce0a2"></path><path d="M82.725,10.858c-2.211,0 -4,1.789 -4,4c0,2.211 1.789,4 4,4c2.211,0 4,-1.789 4,-4c0,-2.211 -1.789,-4 -4,-4z" fill="#f1bc19"></path><path d="M86.725,21.858c-1.105,0 -2,0.895 -2,2c0,1.105 0.895,2 2,2c1.105,0 2,-0.895 2,-2c0,-1.105 -0.895,-2 -2,-2z" fill="#ee3e54"></path><path d="M80.725,73.858c-1.105,0 -2,0.895 -2,2c0,1.105 0.895,2 2,2c1.105,0 2,-0.895 2,-2c0,-1.105 -0.895,-2 -2,-2zM14.725,58.858c-2.211,0 -4,1.789 -4,4c0,2.211 1.789,4 4,4c2.211,0 4,-1.789 4,-4c0,-2.211 -1.789,-4 -4,-4z" fill="#fbcd59"></path><path d="M24.725,84.858c-1.105,0 -2,0.895 -2,2c0,1.105 0.895,2 2,2c1.105,0 2,-0.895 2,-2c0,-1.105 -0.895,-2 -2,-2z" fill="#ee3e54"></path><path d="M18.225,40.858c-1.379,0 -2.5,1.121 -2.5,2.5c0,1.379 1.121,2.5 2.5,2.5c1.379,0 2.5,-1.121 2.5,-2.5c0,-1.379 -1.121,-2.5 -2.5,-2.5z" fill="#ffffff"></path><path d="M20.725,64.858c-0.551,0 -1,0.449 -1,1c0,0.551 0.449,1 1,1c0.551,0 1,-0.449 1,-1c0,-0.551 -0.449,-1 -1,-1z" fill="#f1bc19"></path><path d="M79.725,31.858c-0.551,0 -1,0.449 -1,1c0,0.551 0.449,1 1,1c0.551,0 1,-0.449 1,-1c0,-0.551 -0.449,-1 -1,-1z" fill="#ffffff"></path><g><path d="M55.831,27.841h-11.662c-2.152,0 -4.2,0.427 -6.081,1.183c-0.002,0.002 -0.004,0.005 -0.007,0.007c-6,2.413 -10.24,8.275 -10.24,15.138v11.663c0,9.017 7.31,16.328 16.328,16.328h11.663c5.494,0 10.336,-2.726 13.293,-6.887c0.007,-0.004 0.015,-0.008 0.022,-0.012c1.891,-2.665 3.012,-5.913 3.012,-9.428v-11.664c0,-9.018 -7.31,-16.328 -16.328,-16.328z" fill="#1e65d6"></path><path d="M56.451,28.279h-11.664c-2.054,0 -3.639,0.23 -5.434,0.951c-4.148,3.993 -6.854,9.914 -6.854,14.893c0,7.538 1.042,11.951 4.133,16.262c0.24,0.335 0.397,0.727 0.419,1.138c0.048,0.93 -0.144,2.633 -1.819,4.166c-0.18,0.165 -0.066,0.466 0.178,0.476c1.049,0.046 3.165,-0.016 5.34,-0.976c0.62,-0.274 1.326,-0.226 1.925,0.092c3.688,1.958 8.008,2.221 12.09,2.221c5.206,0 10.573,-1.078 14.311,-3.432c1.805,-2.544 2.675,-5.462 2.675,-8.818v-11.312c-0.001,-8.608 -7.246,-15.661 -15.3,-15.661z" fill="#ededeb"></path><path d="M64.4,53.388c-2.335,0 -4.235,-1.901 -4.235,-4.235c0,-2.334 1.901,-4.235 4.235,-4.235c2.335,0 4.235,1.901 4.235,4.235c0,2.334 -1.9,4.235 -4.235,4.235zM64.4,46.612c-1.4,0 -2.541,1.141 -2.541,2.541c0,1.4 1.141,2.541 2.541,2.541c1.4,0 2.541,-1.141 2.541,-2.541c0,-1.4 -1.14,-2.541 -2.541,-2.541z" fill="#1e65d6"></path><path d="M58.471,53.388h-1.129c-0.312,0 -0.565,-0.253 -0.565,-0.565v-9.6h1.694z" fill="#1e65d6"></path><path d="M53.388,45.2v0.586c-0.71,-0.538 -1.585,-0.869 -2.541,-0.869c-2.335,0 -4.235,1.901 -4.235,4.235c0,2.334 1.901,4.235 4.235,4.235c0.957,0 1.831,-0.331 2.541,-0.869v0.304c0,0.312 0.253,0.565 0.565,0.565h1.129v-8.187zM50.847,51.694c-1.4,0 -2.541,-1.141 -2.541,-2.541c0,-1.4 1.141,-2.541 2.541,-2.541c1.4,0 2.541,1.141 2.541,2.541c0,1.4 -1.14,2.541 -2.541,2.541z" fill="#1e65d6"></path><path d="M46.894,43.223h-9.035v1.694h6.01l-6.263,7.341v0c-0.184,0.238 -0.312,0.523 -0.312,0.847v0.282h8.471c0.312,0 0.565,-0.253 0.565,-0.565v-1.129h-6.01l6.263,-7.341v0c0.184,-0.238 0.312,-0.523 0.312,-0.847v-0.282z" fill="#1e65d6"></path><g fill="#472b29"><path d="M64.4,53.639c-2.474,0 -4.485,-2.012 -4.485,-4.485c0,-2.473 2.012,-4.485 4.485,-4.485c2.473,0 4.485,2.012 4.485,4.485c0,2.473 -2.011,4.485 -4.485,4.485zM64.4,45.168c-2.197,0 -3.985,1.788 -3.985,3.985c0,2.197 1.788,3.985 3.985,3.985c2.197,0 3.985,-1.788 3.985,-3.985c0,-2.197 -1.787,-3.985 -3.985,-3.985zM64.4,51.944c-1.539,0 -2.791,-1.252 -2.791,-2.791c0,-1.539 1.252,-2.792 2.791,-2.792c1.539,0 2.791,1.253 2.791,2.792c0,1.539 -1.252,2.791 -2.791,2.791zM64.4,46.861c-1.264,0 -2.291,1.028 -2.291,2.292c0,1.264 1.027,2.291 2.291,2.291c1.264,0 2.291,-1.027 2.291,-2.291c0,-1.264 -1.027,-2.292 -2.291,-2.292z"></path><path d="M58.471,53.639h-1.13c-0.449,0 -0.814,-0.366 -0.814,-0.815v-9.6c0,-0.138 0.112,-0.25 0.25,-0.25h1.694c0.138,0 0.25,0.112 0.25,0.25v10.165c0,0.137 -0.113,0.25 -0.25,0.25zM57.026,43.474v9.35c0,0.174 0.141,0.315 0.314,0.315h0.88v-9.665z"></path><path d="M55.082,53.639h-1.129c-0.395,0 -0.725,-0.283 -0.799,-0.656c-0.704,0.431 -1.493,0.656 -2.308,0.656c-2.474,0 -4.485,-2.012 -4.485,-4.485c0,-2.473 2.012,-4.485 4.485,-4.485c0.809,0 1.593,0.222 2.292,0.646v-0.115c0,-0.138 0.112,-0.25 0.25,-0.25h1.693c0.138,0 0.25,0.112 0.25,0.25v8.188c0.001,0.138 -0.111,0.251 -0.249,0.251zM53.389,52.27c0.038,0 0.076,0.009 0.111,0.026c0.085,0.042 0.139,0.129 0.139,0.224v0.304c0,0.174 0.141,0.315 0.314,0.315h0.879v-7.689h-1.193v0.336c0,0.095 -0.054,0.182 -0.139,0.224c-0.084,0.043 -0.186,0.033 -0.262,-0.024c-0.707,-0.535 -1.534,-0.817 -2.392,-0.817c-2.197,0 -3.985,1.788 -3.985,3.985c0,2.197 1.788,3.985 3.985,3.985c0.856,0 1.684,-0.283 2.392,-0.818c0.044,-0.034 0.097,-0.051 0.151,-0.051zM50.847,51.944c-1.539,0 -2.791,-1.252 -2.791,-2.791c0,-1.539 1.252,-2.792 2.791,-2.792c1.539,0 2.792,1.253 2.792,2.792c0,1.539 -1.253,2.791 -2.792,2.791zM50.847,46.861c-1.264,0 -2.291,1.028 -2.291,2.292c0,1.264 1.027,2.291 2.291,2.291c1.264,0 2.292,-1.027 2.292,-2.291c0,-1.264 -1.029,-2.292 -2.292,-2.292z"></path><path d="M45.765,53.639h-8.471c-0.138,0 -0.25,-0.112 -0.25,-0.25v-0.283c0,-0.35 0.122,-0.687 0.363,-0.999l5.919,-6.938h-5.468c-0.138,0 -0.25,-0.112 -0.25,-0.25v-1.694c0,-0.138 0.112,-0.25 0.25,-0.25h9.036c0.138,0 0.25,0.112 0.25,0.25v0.282c0,0.351 -0.123,0.688 -0.365,1l-5.918,6.938h5.468c0.138,0 0.25,0.112 0.25,0.25v1.129c0,0.448 -0.365,0.815 -0.814,0.815zM37.544,53.139h8.221c0.174,0 0.314,-0.142 0.314,-0.315v-0.879h-5.76c-0.098,0 -0.187,-0.057 -0.227,-0.146c-0.041,-0.088 -0.027,-0.192 0.036,-0.267l6.263,-7.342c0.165,-0.214 0.253,-0.447 0.253,-0.685v-0.032h-8.536v1.194h5.76c0.098,0 0.187,0.057 0.227,0.146c0.041,0.088 0.027,0.192 -0.036,0.267l-6.263,7.341c-0.165,0.214 -0.252,0.447 -0.252,0.685z"></path><path d="M55.647,28.541c8.733,0 15.812,7.079 15.812,15.812v11.294c0,3.404 -1.086,6.549 -2.917,9.13c-0.007,0.004 -0.015,0.008 -0.022,0.012c-2.864,4.03 -7.553,6.67 -12.873,6.67h-11.294c-8.733,0 -15.812,-7.079 -15.812,-15.812v-11.294c0,-6.646 4.107,-12.323 9.917,-14.66c0.002,-0.002 0.004,-0.005 0.006,-0.007c1.822,-0.732 3.805,-1.145 5.889,-1.145h11.294M55.647,27.141h-11.294c-2.196,0 -4.353,0.419 -6.411,1.246l-0.255,0.102l-0.012,0.011c-6.409,2.697 -10.535,8.889 -10.535,15.852v11.294c0,9.491 7.721,17.212 17.212,17.212h11.294c5.446,0 10.596,-2.617 13.838,-7.016l0.029,-0.018l0.169,-0.238c2.077,-2.928 3.175,-6.366 3.175,-9.94v-11.293c0.002,-9.491 -7.719,-17.212 -17.21,-17.212z"></path><path d="M54.74,68.002c-4.171,0 -8.55,-0.276 -12.322,-2.278c-0.478,-0.254 -1.022,-0.281 -1.487,-0.077c-2.258,0.998 -4.455,1.064 -5.563,1.02c-0.315,-0.015 -0.59,-0.215 -0.697,-0.512c-0.107,-0.295 -0.028,-0.622 0.202,-0.833c1.539,-1.408 1.699,-2.967 1.658,-3.771c-0.016,-0.294 -0.128,-0.596 -0.326,-0.872c-3.08,-4.295 -4.225,-8.78 -4.225,-16.548c0,-4.954 2.71,-11.046 6.591,-14.813l1.506,-1.305l0.654,0.756l-1.484,1.285c-3.681,3.575 -6.267,9.371 -6.267,14.076c0,7.63 1.057,11.808 4.037,15.966c0.31,0.432 0.486,0.916 0.512,1.402c0.047,0.907 -0.112,2.597 -1.594,4.179c1.104,-0.005 2.83,-0.167 4.591,-0.944c0.748,-0.33 1.608,-0.292 2.36,0.108c3.579,1.899 7.813,2.161 11.854,2.161c5.231,0 10.3,-1.186 13.56,-3.172c0.548,-0.288 1.698,-1.105 1.71,-1.113l0.58,0.814c-0.05,0.035 -1.219,0.865 -1.799,1.169c-3.38,2.062 -8.644,3.302 -14.051,3.302z"></path></g></g></g></g>
</svg>